<svg xmlns="http://www.w3.org/2000/svg" viewBox="0 0 1024 1024">
  <defs>
    <linearGradient id="bg" x1="156" x2="872" y1="112" y2="912" gradientUnits="userSpaceOnUse">
      <stop offset="0" stop-color="#1F2937"/>
      <stop offset="0.48" stop-color="#111827"/>
      <stop offset="1" stop-color="#0A0F1A"/>
    </linearGradient>
    <linearGradient id="trace" x1="206" x2="826" y1="672" y2="272" gradientUnits="userSpaceOnUse">
      <stop offset="0" stop-color="#22C55E"/>
      <stop offset="0.5" stop-color="#0EA5E9"/>
      <stop offset="1" stop-color="#6366F1"/>
    </linearGradient>
    <filter id="shadow" x="-20%" y="-20%" width="140%" height="140%">
      <feDropShadow dx="0" dy="28" stdDeviation="34" flood-color="#000000" flood-opacity="0.35"/>
    </filter>
  </defs>
  <rect width="880" height="880" x="72" y="72" rx="208" fill="url(#bg)" filter="url(#shadow)"/>
  <rect width="780" height="780" x="122" y="122" rx="164" fill="none" stroke="#FFFFFF" stroke-opacity="0.08" stroke-width="18"/>
  <path d="M248 616c92 0 92-208 184-208s92 208 184 208 92-208 184-208" fill="none" stroke="url(#trace)" stroke-linecap="round" stroke-width="72"/>
  <path d="M256 688h512" stroke="#FFFFFF" stroke-linecap="round" stroke-opacity="0.92" stroke-width="44"/>
  <circle cx="248" cy="616" r="54" fill="#22C55E"/>
  <circle cx="432" cy="408" r="54" fill="#0EA5E9"/>
  <circle cx="616" cy="616" r="54" fill="#38BDF8"/>
  <circle cx="800" cy="408" r="54" fill="#6366F1"/>
  <path d="M298 330h92l72 280 78-280h82l78 280 72-280h88L746 694h-86l-80-264-80 264h-86L298 330Z" fill="#FFFFFF" opacity="0.96"/>
</svg>
